<svg xmlns="http://www.w3.org/2000/svg" width="512" height="512" viewBox="0 0 512 512"><title>Acquisition</title><defs><linearGradient id="icon-studio-bg" x1="0.067" y1="0.25" x2="0.933" y2="0.75"><stop offset="0" stop-color="#9796F0"/><stop offset="1" stop-color="#FBC7D4"/></linearGradient><radialGradient id="icon-studio-glare" cx="0.28" cy="0.22" r="0.85"><stop offset="0" stop-color="#FFFFFF" stop-opacity="0.077"/><stop offset="0.55" stop-color="#FFFFFF" stop-opacity="0.017"/><stop offset="1" stop-color="#FFFFFF" stop-opacity="0"/></radialGradient></defs><rect width="512" height="512" rx="112" ry="112" fill="url(#icon-studio-bg)"/><g transform="translate(128 128) scale(10.667)" fill="none" stroke="#FFFFFF" stroke-width="2" stroke-linecap="round" stroke-linejoin="round"><path d="M12 22V12"/><path d="M20.27 18.27 22 20"/><path d="M21 10.498V8a2 2 0 0 0-1-1.73l-7-4a2 2 0 0 0-2 0l-7 4A2 2 0 0 0 3 8v8a2 2 0 0 0 1 1.729l7 4a2 2 0 0 0 2 .001l.98-.559"/><path d="M3.29 7 12 12l8.71-5"/><path d="m7.5 4.27 8.997 5.148"/><circle cx="18.5" cy="16.5" r="2.5"/></g><rect width="512" height="512" fill="url(#icon-studio-glare)"/></svg>
