<svg xmlns="http://www.w3.org/2000/svg" width="512" height="512" viewBox="0 0 512 512"><title>Scene</title><defs><linearGradient id="icon-studio-bg" x1="0.146" y1="0.854" x2="0.854" y2="0.146"><stop offset="0" stop-color="#7F00FF"/><stop offset="1" stop-color="#E100FF"/></linearGradient><radialGradient id="icon-studio-glare" cx="0.28" cy="0.22" r="0.85"><stop offset="0" stop-color="#FFFFFF" stop-opacity="0.077"/><stop offset="0.55" stop-color="#FFFFFF" stop-opacity="0.017"/><stop offset="1" stop-color="#FFFFFF" stop-opacity="0"/></radialGradient></defs><rect width="512" height="512" rx="112" ry="112" fill="url(#icon-studio-bg)"/><g transform="translate(128 128) scale(10.667)" fill="none" stroke="#FFFFFF" stroke-width="2" stroke-linecap="round" stroke-linejoin="round"><path d="m12.296 3.464 3.02 3.956"/><path d="M20.2 6 3 11l-.9-2.4c-.3-1.1.3-2.2 1.3-2.5l13.5-4c1.1-.3 2.2.3 2.5 1.3z"/><path d="M3 11h18v8a2 2 0 0 1-2 2H5a2 2 0 0 1-2-2z"/><path d="m6.18 5.276 3.1 3.899"/></g><rect width="512" height="512" fill="url(#icon-studio-glare)"/></svg>
